<svg version="1.1" id="Layer_1" xmlns="http://www.w3.org/2000/svg" xmlns:xlink="http://www.w3.org/1999/xlink" x="0px" y="0px"
	 width="100%" viewBox="0 0 740 688" enable-background="new 0 0 740 688" xml:space="preserve">
<path fill="#000000" opacity="1.000000" stroke="none" 
	d="
M6.000000,1.000000 
	C250.964172,1.000000 495.928345,1.000000 740.946289,1.000000 
	C740.946289,230.263947 740.946289,459.527893 740.946289,688.895935 
	C494.438843,688.895935 247.877609,688.895935 1.000000,688.895935 
	C1.000000,461.972076 1.000000,234.943985 1.381390,7.455559 
	C5.622296,6.726345 6.171558,4.117898 6.000000,1.000000 
M6.650543,222.593491 
	C6.727155,233.691620 6.803768,244.789749 6.935664,256.809204 
	C8.321733,261.920288 9.579586,267.070312 11.119209,272.134735 
	C14.921442,284.641693 17.411259,297.693817 25.447632,308.519135 
	C43.081047,332.272064 62.174824,353.803864 94.540520,356.578094 
	C108.691467,357.791077 122.027596,355.991943 134.063141,348.195618 
	C152.866684,336.015076 166.801132,302.998993 162.988358,281.074158 
	C161.864319,274.610565 161.491364,267.991150 161.138672,261.423615 
	C160.288803,245.597900 154.088409,231.624252 146.176987,218.338638 
	C138.441360,205.348297 129.263321,193.567535 117.468803,183.753479 
	C106.953514,175.003845 96.062263,167.718582 82.337715,165.045166 
	C68.662125,162.381271 55.020184,162.916565 42.804764,168.977631 
	C31.724903,174.475250 22.425177,183.026901 16.885069,194.859055 
	C12.769188,203.649475 7.651600,212.015198 6.650543,222.593491 
M576.154236,400.737457 
	C561.894653,400.535126 547.635559,400.273987 533.375305,400.151672 
	C524.266296,400.073517 515.155579,400.200592 505.571747,399.841339 
	C505.290009,399.542389 505.008270,399.243439 504.516388,398.552826 
	C504.069092,398.216034 503.621826,397.879242 502.691223,396.999573 
	C498.531433,392.883850 494.371613,388.768127 490.227936,384.419037 
	C490.135101,384.064178 489.922028,383.915344 489.022156,383.401672 
	C482.228851,375.948608 475.270691,368.637207 468.699524,360.993195 
	C464.235474,355.800354 458.948914,350.708191 456.405029,344.584442 
	C448.671997,325.969421 441.817871,306.971680 435.133148,287.943207 
	C426.809692,264.249969 409.893097,247.918365 390.279541,233.638153 
	C381.621735,227.334595 371.960724,223.350525 361.760162,220.583450 
	C357.102051,219.319855 352.291138,218.482819 347.495209,217.896484 
	C340.481110,217.038971 333.303925,217.169067 326.400513,215.827179 
	C313.125366,213.246735 300.095978,215.291611 287.193176,217.497040 
	C276.900574,219.256317 266.821869,222.464951 256.790405,225.500076 
	C246.202759,228.703491 236.975967,234.777191 228.858566,241.997421 
	C222.170029,247.946701 215.984512,254.810059 210.977600,262.215912 
	C204.247910,272.169922 198.578735,282.885590 193.015717,293.566711 
	C189.770752,299.797150 187.503387,306.553711 185.013412,313.155457 
	C182.687103,319.323395 180.706818,325.620972 178.464142,331.821655 
	C176.514313,337.212708 175.094437,342.947144 172.244202,347.831848 
	C164.301254,361.444305 152.844147,372.274170 142.223740,383.724091 
	C139.546204,386.610809 136.025681,388.696869 133.151230,391.423584 
	C127.336334,396.939636 121.793877,402.743408 115.963104,408.241974 
	C109.049675,414.761505 101.758339,420.888824 94.990280,427.551331 
	C89.043732,433.405090 82.729309,439.184021 78.136208,446.040283 
	C72.001884,455.197205 67.011894,465.190552 62.250648,475.168304 
	C59.848194,480.202911 59.032082,485.994537 57.498676,491.443848 
	C58.037960,491.975372 58.577240,492.506927 59.116524,493.038483 
	C64.212852,491.396912 69.562042,490.291656 74.364746,488.027313 
	C107.144783,472.572418 139.558029,456.315338 174.654724,446.385681 
	C186.075226,443.154541 197.017639,438.138885 208.512909,435.285858 
	C234.409134,428.858643 260.476837,423.100739 286.554138,417.436035 
	C295.923187,415.400787 305.494019,414.206360 315.020905,413.012390 
	C323.319366,411.972382 331.680267,411.406067 340.023071,410.750763 
	C352.407959,409.778015 364.803772,408.945435 377.189911,407.987732 
	C385.448029,407.349243 393.697357,406.596954 402.881531,406.064728 
	C408.378754,406.039764 413.878693,406.112427 419.372375,405.960297 
	C424.125122,405.828674 428.870789,405.441772 434.409973,405.148071 
	C448.017517,405.059601 461.740295,401.876862 475.232971,406.874908 
	C466.146790,408.397583 457.016327,409.113373 447.893127,409.911346 
	C442.202545,410.409088 436.497711,410.851807 430.844727,411.643555 
	C424.179413,412.577118 417.597443,414.175018 410.915955,414.903900 
	C404.316315,415.623871 397.557007,415.089020 391.016602,416.083649 
	C384.707336,417.043091 378.632782,419.450256 372.373962,420.861755 
	C365.009186,422.522675 357.480042,423.487793 350.162292,425.315674 
	C340.838348,427.644653 331.655670,430.538666 322.410461,433.183411 
	C314.231903,435.522980 305.938629,437.524872 297.897217,440.266022 
	C285.252869,444.576294 272.740692,449.284851 260.243561,454.012543 
	C251.980316,457.138458 243.746811,460.379578 235.672180,463.957703 
	C226.792587,467.892517 218.159286,472.379608 209.326920,476.425812 
	C202.018600,479.773895 194.446381,482.562744 187.224487,486.078796 
	C176.163467,491.463989 165.240906,497.144257 154.375259,502.917053 
	C143.788818,508.541504 133.117203,514.062622 122.900665,520.312012 
	C109.931152,528.245239 97.552338,537.141602 84.615341,545.131287 
	C61.656582,559.310242 39.235023,574.133484 19.493795,592.732178 
	C15.150831,596.823792 12.808082,601.378296 12.505943,607.098450 
	C12.286683,611.249573 12.214977,615.430542 12.438894,619.578735 
	C13.033471,630.593567 14.383918,641.374023 21.405155,650.619019 
	C33.015255,665.906311 48.153687,675.719238 66.792244,679.921265 
	C72.356300,681.175720 78.213989,681.872803 83.894699,681.665039 
	C90.157341,681.435974 96.393349,679.993835 102.601295,678.862488 
	C113.165024,676.937439 122.263779,672.086304 129.850632,664.500854 
	C132.896652,661.455444 135.533356,657.983765 138.694870,655.073914 
	C147.919159,646.584045 157.271942,638.232117 166.652756,629.914490 
	C178.522827,619.389709 190.007935,608.358765 202.500931,598.626770 
	C218.194260,586.401672 234.991562,575.601440 250.827805,563.549438 
	C260.987030,555.817810 272.373932,551.679932 284.624908,550.564392 
	C296.625122,549.471680 308.820923,549.468140 320.862762,550.164368 
	C335.281555,550.998108 350.040100,551.459106 363.913818,554.984558 
	C387.420471,560.957947 410.513550,568.729004 433.472931,576.637329 
	C455.763977,584.315491 477.799469,592.446350 501.951996,591.013916 
	C517.624084,590.084351 531.788147,585.565491 543.262939,574.295044 
	C553.383057,564.355225 560.358948,552.489502 566.392029,539.679382 
	C574.375488,522.727966 575.355225,505.116241 573.247681,487.194153 
	C571.823853,475.086792 566.099243,464.419586 558.711121,454.657806 
	C556.170410,451.300842 554.475403,447.303802 551.858215,442.645569 
	C554.787659,442.317169 556.199890,442.154968 557.612976,442.001160 
	C562.551208,441.463715 567.484497,440.873657 572.429077,440.403381 
	C591.587280,438.581268 610.747009,436.775269 629.911377,435.019379 
	C633.548706,434.686127 637.208252,434.581207 640.859619,434.417358 
	C657.455566,433.672577 674.046204,432.613464 690.650452,432.313568 
	C704.269226,432.067566 717.903992,432.782318 731.533142,432.900879 
	C732.674683,432.910797 733.827515,431.624237 734.975098,430.940063 
	C734.179321,429.632111 733.699951,427.707611 732.538757,427.111572 
	C720.900818,421.137756 708.174622,418.766052 695.465759,416.477936 
	C689.369629,415.380371 683.150452,414.970551 677.049316,413.895386 
	C668.000244,412.300751 659.017822,410.330811 649.982300,408.653870 
	C647.300232,408.156067 644.509583,408.262360 641.812561,407.822784 
	C631.757874,406.183960 621.775696,403.907745 611.663818,402.862915 
	C600.057861,401.663727 588.343079,401.518707 576.154236,400.737457 
M163.857330,159.580353 
	C165.414856,162.320831 166.994537,165.048981 168.526291,167.803772 
	C178.476303,185.698303 192.177811,199.192871 212.020721,205.913452 
	C220.089493,208.646255 228.131088,208.785141 236.254608,207.278503 
	C257.480652,203.341843 271.846619,189.478668 283.891632,172.944870 
	C297.428131,154.363800 301.067719,132.468338 301.709106,110.269951 
	C302.029388,99.186150 299.615814,87.965179 297.888123,76.892174 
	C293.987488,51.892738 279.154266,33.379272 260.355682,18.123669 
	C251.251083,10.735027 239.451447,8.698299 227.347931,8.833300 
	C215.810165,8.961990 205.593826,12.168297 195.978317,18.199900 
	C187.296249,23.645985 180.961700,31.384636 174.180725,38.882755 
	C162.945297,51.306389 160.568802,67.354088 155.635742,82.175896 
	C153.127640,89.711678 154.733856,98.693916 154.879227,107.015305 
	C155.043625,116.426254 155.034698,125.911171 156.259720,135.211319 
	C157.336639,143.387100 158.694504,151.760971 163.857330,159.580353 
M432.428986,201.013458 
	C446.264893,193.824478 456.153564,182.847778 464.100464,169.555527 
	C470.731964,158.463486 473.534851,146.313004 476.002289,133.996826 
	C477.683746,125.603867 479.411743,117.092850 479.694153,108.587311 
	C479.920166,101.782150 477.374817,94.926010 477.151733,88.057030 
	C476.541931,69.277229 468.946930,53.210491 458.489044,38.296631 
	C449.557159,25.558872 437.725098,15.906447 423.023285,10.783772 
	C417.072021,8.710119 410.138458,8.919272 403.667053,9.024228 
	C397.081268,9.131038 389.737610,8.762728 384.091644,11.460700 
	C369.927856,18.228935 358.773560,28.834375 349.679718,41.960503 
	C342.734039,51.986004 339.484222,63.149006 335.944397,74.391205 
	C335.022308,77.319557 333.335114,80.206154 333.226654,83.157028 
	C332.758087,95.907417 332.644684,108.674347 332.621857,121.435661 
	C332.614136,125.764137 332.538177,130.305496 333.743866,134.379501 
	C336.387665,143.313034 339.802551,152.020142 342.953064,160.801590 
	C349.516876,179.096725 362.432007,192.740585 378.831329,201.419815 
	C395.575043,210.281326 414.134888,211.382767 432.428986,201.013458 
M538.134705,359.980286 
	C553.725586,357.373566 567.414673,350.905060 578.805908,339.839355 
	C594.742371,324.358276 604.488647,305.473969 609.449463,283.959686 
	C614.867981,260.460510 615.234619,237.147675 606.064880,214.439041 
	C600.510315,200.683319 591.606140,188.928925 580.679932,179.134354 
	C574.252075,173.372192 566.184875,169.228668 557.241394,168.185547 
	C543.468689,166.579208 529.714722,167.611816 517.243286,173.700897 
	C509.490723,177.486008 502.377441,183.122345 496.019409,189.046371 
	C491.147797,193.585480 488.335663,200.255997 483.848053,205.303268 
	C475.483734,214.710754 472.029968,226.289383 468.533356,237.829361 
	C466.827393,243.459641 466.020905,249.416641 465.329315,255.287277 
	C464.314240,263.903992 462.123657,272.833221 463.427551,281.160522 
	C465.143005,292.116241 466.031769,303.232117 470.417328,314.028015 
	C476.672974,329.427490 485.382996,341.997681 499.282104,350.935822 
	C502.593262,353.065125 506.009308,355.727203 509.702820,356.428192 
	C518.773132,358.149628 528.033142,358.871521 538.134705,359.980286 
z"/>
<path fill="#2121C8" opacity="1.000000" stroke="none" 
	d="
M5.500038,1.000000 
	C6.171558,4.117898 5.622296,6.726345 1.381390,6.997606 
	C1.000000,5.095223 1.000000,3.190447 1.000000,1.000000 
	C2.328534,1.000000 3.664304,1.000000 5.500038,1.000000 
z"/>
<path fill="#006EB4" opacity="1.000000" stroke="none" 
	d="
M401.950623,405.895569 
	C393.697357,406.596954 385.448029,407.349243 377.189911,407.987732 
	C364.803772,408.945435 352.407959,409.778015 340.023071,410.750763 
	C331.680267,411.406067 323.319366,411.972382 315.020905,413.012390 
	C305.494019,414.206360 295.923187,415.400787 286.554138,417.436035 
	C260.476837,423.100739 234.409134,428.858643 208.512909,435.285858 
	C197.017639,438.138885 186.075226,443.154541 174.654724,446.385681 
	C139.558029,456.315338 107.144783,472.572418 74.364746,488.027313 
	C69.562042,490.291656 64.212852,491.396912 59.116524,493.038483 
	C58.577240,492.506927 58.037960,491.975372 57.498676,491.443848 
	C59.032082,485.994537 59.848194,480.202911 62.250648,475.168304 
	C67.011894,465.190552 72.001884,455.197205 78.136208,446.040283 
	C82.729309,439.184021 89.043732,433.405090 94.990280,427.551331 
	C101.758339,420.888824 109.049675,414.761505 115.963104,408.241974 
	C121.793877,402.743408 127.336334,396.939636 133.151230,391.423584 
	C136.025681,388.696869 139.546204,386.610809 142.223740,383.724091 
	C152.844147,372.274170 164.301254,361.444305 172.244202,347.831848 
	C175.094437,342.947144 176.514313,337.212708 178.464142,331.821655 
	C180.706818,325.620972 182.687103,319.323395 185.013412,313.155457 
	C187.503387,306.553711 189.770752,299.797150 193.015717,293.566711 
	C198.578735,282.885590 204.247910,272.169922 210.977600,262.215912 
	C215.984512,254.810059 222.170029,247.946701 228.858566,241.997421 
	C236.975967,234.777191 246.202759,228.703491 256.790405,225.500076 
	C266.821869,222.464951 276.900574,219.256317 287.193176,217.497040 
	C300.095978,215.291611 313.125366,213.246735 326.400513,215.827179 
	C333.303925,217.169067 340.481110,217.038971 347.495209,217.896484 
	C352.291138,218.482819 357.102051,219.319855 361.760162,220.583450 
	C371.960724,223.350525 381.621735,227.334595 390.279541,233.638153 
	C409.893097,247.918365 426.809692,264.249969 435.133148,287.943207 
	C441.817871,306.971680 448.671997,325.969421 456.405029,344.584442 
	C458.948914,350.708191 464.235474,355.800354 468.699524,360.993195 
	C475.270691,368.637207 482.228851,375.948608 489.325195,383.769836 
	C489.786774,384.360657 489.981323,384.532135 490.211823,384.652405 
	C494.371613,388.768127 498.531433,392.883850 503.033203,397.446686 
	C503.825653,398.244019 504.276093,398.594269 504.726532,398.944489 
	C505.008270,399.243439 505.290009,399.542389 506.130829,400.278381 
	C530.018433,400.782196 553.346985,400.848999 576.675537,400.915771 
	C588.343079,401.518707 600.057861,401.663727 611.663818,402.862915 
	C621.775696,403.907745 631.757874,406.183960 641.812561,407.822784 
	C644.509583,408.262360 647.300232,408.156067 649.982300,408.653870 
	C659.017822,410.330811 668.000244,412.300751 677.049316,413.895386 
	C683.150452,414.970551 689.369629,415.380371 695.465759,416.477936 
	C708.174622,418.766052 720.900818,421.137756 732.538757,427.111572 
	C733.699951,427.707611 734.179321,429.632111 734.975098,430.940063 
	C733.827515,431.624237 732.674683,432.910797 731.533142,432.900879 
	C717.903992,432.782318 704.269226,432.067566 690.650452,432.313568 
	C674.046204,432.613464 657.455566,433.672577 640.859619,434.417358 
	C637.208252,434.581207 633.548706,434.686127 629.911377,435.019379 
	C610.747009,436.775269 591.587280,438.581268 572.429077,440.403381 
	C567.484497,440.873657 562.551208,441.463715 557.612976,442.001160 
	C556.199890,442.154968 554.787659,442.317169 551.858215,442.645569 
	C554.475403,447.303802 556.170410,451.300842 558.711121,454.657806 
	C566.099243,464.419586 571.823853,475.086792 573.247681,487.194153 
	C575.355225,505.116241 574.375488,522.727966 566.392029,539.679382 
	C560.358948,552.489502 553.383057,564.355225 543.262939,574.295044 
	C531.788147,585.565491 517.624084,590.084351 501.951996,591.013916 
	C477.799469,592.446350 455.763977,584.315491 433.472931,576.637329 
	C410.513550,568.729004 387.420471,560.957947 363.913818,554.984558 
	C350.040100,551.459106 335.281555,550.998108 320.862762,550.164368 
	C308.820923,549.468140 296.625122,549.471680 284.624908,550.564392 
	C272.373932,551.679932 260.987030,555.817810 250.827805,563.549438 
	C234.991562,575.601440 218.194260,586.401672 202.500931,598.626770 
	C190.007935,608.358765 178.522827,619.389709 166.652756,629.914490 
	C157.271942,638.232117 147.919159,646.584045 138.694870,655.073914 
	C135.533356,657.983765 132.896652,661.455444 129.850632,664.500854 
	C122.263779,672.086304 113.165024,676.937439 102.601295,678.862488 
	C96.393349,679.993835 90.157341,681.435974 83.894699,681.665039 
	C78.213989,681.872803 72.356300,681.175720 66.792244,679.921265 
	C48.153687,675.719238 33.015255,665.906311 21.405155,650.619019 
	C14.383918,641.374023 13.033471,630.593567 12.438894,619.578735 
	C12.214977,615.430542 12.286683,611.249573 12.505943,607.098450 
	C12.808082,601.378296 15.150831,596.823792 19.493795,592.732178 
	C39.235023,574.133484 61.656582,559.310242 84.615341,545.131287 
	C97.552338,537.141602 109.931152,528.245239 122.900665,520.312012 
	C133.117203,514.062622 143.788818,508.541504 154.375259,502.917053 
	C165.240906,497.144257 176.163467,491.463989 187.224487,486.078796 
	C194.446381,482.562744 202.018600,479.773895 209.326920,476.425812 
	C218.159286,472.379608 226.792587,467.892517 235.672180,463.957703 
	C243.746811,460.379578 251.980316,457.138458 260.243561,454.012543 
	C272.740692,449.284851 285.252869,444.576294 297.897217,440.266022 
	C305.938629,437.524872 314.231903,435.522980 322.410461,433.183411 
	C331.655670,430.538666 340.838348,427.644653 350.162292,425.315674 
	C357.480042,423.487793 365.009186,422.522675 372.373962,420.861755 
	C378.632782,419.450256 384.707336,417.043091 391.016602,416.083649 
	C397.557007,415.089020 404.316315,415.623871 410.915955,414.903900 
	C417.597443,414.175018 424.179413,412.577118 430.844727,411.643555 
	C436.497711,410.851807 442.202545,410.409088 447.893127,409.911346 
	C457.016327,409.113373 466.146790,408.397583 475.232971,406.874908 
	C461.740295,401.876862 448.017517,405.059601 433.570618,405.141510 
	C423.644226,405.079193 414.557098,404.989288 405.470245,405.009796 
	C404.296387,405.012421 403.123810,405.586304 401.950623,405.895569 
z"/>
<path fill="#006EB4" opacity="1.000000" stroke="none" 
	d="
M6.882956,222.017502 
	C7.651600,212.015198 12.769188,203.649475 16.885069,194.859055 
	C22.425177,183.026901 31.724903,174.475250 42.804764,168.977631 
	C55.020184,162.916565 68.662125,162.381271 82.337715,165.045166 
	C96.062263,167.718582 106.953514,175.003845 117.468803,183.753479 
	C129.263321,193.567535 138.441360,205.348297 146.176987,218.338638 
	C154.088409,231.624252 160.288803,245.597900 161.138672,261.423615 
	C161.491364,267.991150 161.864319,274.610565 162.988358,281.074158 
	C166.801132,302.998993 152.866684,336.015076 134.063141,348.195618 
	C122.027596,355.991943 108.691467,357.791077 94.540520,356.578094 
	C62.174824,353.803864 43.081047,332.272064 25.447632,308.519135 
	C17.411259,297.693817 14.921442,284.641693 11.119209,272.134735 
	C9.579586,267.070312 8.321733,261.920288 6.961722,255.997253 
	C6.952839,244.129379 6.917898,233.073441 6.882956,222.017502 
z"/>
<path fill="#016EB4" opacity="1.000000" stroke="none" 
	d="
M163.643005,159.271255 
	C158.694504,151.760971 157.336639,143.387100 156.259720,135.211319 
	C155.034698,125.911171 155.043625,116.426254 154.879227,107.015305 
	C154.733856,98.693916 153.127640,89.711678 155.635742,82.175896 
	C160.568802,67.354088 162.945297,51.306389 174.180725,38.882755 
	C180.961700,31.384636 187.296249,23.645985 195.978317,18.199900 
	C205.593826,12.168297 215.810165,8.961990 227.347931,8.833300 
	C239.451447,8.698299 251.251083,10.735027 260.355682,18.123669 
	C279.154266,33.379272 293.987488,51.892738 297.888123,76.892174 
	C299.615814,87.965179 302.029388,99.186150 301.709106,110.269951 
	C301.067719,132.468338 297.428131,154.363800 283.891632,172.944870 
	C271.846619,189.478668 257.480652,203.341843 236.254608,207.278503 
	C228.131088,208.785141 220.089493,208.646255 212.020721,205.913452 
	C192.177811,199.192871 178.476303,185.698303 168.526291,167.803772 
	C166.994537,165.048981 165.414856,162.320831 163.643005,159.271255 
z"/>
<path fill="#006EB4" opacity="1.000000" stroke="none" 
	d="
M432.092712,201.173492 
	C414.134888,211.382767 395.575043,210.281326 378.831329,201.419815 
	C362.432007,192.740585 349.516876,179.096725 342.953064,160.801590 
	C339.802551,152.020142 336.387665,143.313034 333.743866,134.379501 
	C332.538177,130.305496 332.614136,125.764137 332.621857,121.435661 
	C332.644684,108.674347 332.758087,95.907417 333.226654,83.157028 
	C333.335114,80.206154 335.022308,77.319557 335.944397,74.391205 
	C339.484222,63.149006 342.734039,51.986004 349.679718,41.960503 
	C358.773560,28.834375 369.927856,18.228935 384.091644,11.460700 
	C389.737610,8.762728 397.081268,9.131038 403.667053,9.024228 
	C410.138458,8.919272 417.072021,8.710119 423.023285,10.783772 
	C437.725098,15.906447 449.557159,25.558872 458.489044,38.296631 
	C468.946930,53.210491 476.541931,69.277229 477.151733,88.057030 
	C477.374817,94.926010 479.920166,101.782150 479.694153,108.587311 
	C479.411743,117.092850 477.683746,125.603867 476.002289,133.996826 
	C473.534851,146.313004 470.731964,158.463486 464.100464,169.555527 
	C456.153564,182.847778 446.264893,193.824478 432.092712,201.173492 
z"/>
<path fill="#016EB4" opacity="1.000000" stroke="none" 
	d="
M537.675781,359.987915 
	C528.033142,358.871521 518.773132,358.149628 509.702820,356.428192 
	C506.009308,355.727203 502.593262,353.065125 499.282104,350.935822 
	C485.382996,341.997681 476.672974,329.427490 470.417328,314.028015 
	C466.031769,303.232117 465.143005,292.116241 463.427551,281.160522 
	C462.123657,272.833221 464.314240,263.903992 465.329315,255.287277 
	C466.020905,249.416641 466.827393,243.459641 468.533356,237.829361 
	C472.029968,226.289383 475.483734,214.710754 483.848053,205.303268 
	C488.335663,200.255997 491.147797,193.585480 496.019409,189.046371 
	C502.377441,183.122345 509.490723,177.486008 517.243286,173.700897 
	C529.714722,167.611816 543.468689,166.579208 557.241394,168.185547 
	C566.184875,169.228668 574.252075,173.372192 580.679932,179.134354 
	C591.606140,188.928925 600.510315,200.683319 606.064880,214.439041 
	C615.234619,237.147675 614.867981,260.460510 609.449463,283.959686 
	C604.488647,305.473969 594.742371,324.358276 578.805908,339.839355 
	C567.414673,350.905060 553.725586,357.373566 537.675781,359.987915 
z"/>
<path fill="#505050" opacity="1.000000" stroke="none" 
	d="
M576.414917,400.826630 
	C553.346985,400.848999 530.018433,400.782196 506.367737,400.475525 
	C515.155579,400.200592 524.266296,400.073517 533.375305,400.151672 
	C547.635559,400.273987 561.894653,400.535126 576.414917,400.826630 
z"/>
<path fill="#565656" opacity="1.000000" stroke="none" 
	d="
M6.766749,222.305496 
	C6.917898,233.073441 6.952839,244.129379 6.934081,255.536591 
	C6.803768,244.789749 6.727155,233.691620 6.766749,222.305496 
z"/>
<path fill="#C3C3C3" opacity="1.000000" stroke="none" 
	d="
M402.416077,405.980164 
	C403.123810,405.586304 404.296387,405.012421 405.470245,405.009796 
	C414.557098,404.989288 423.644226,405.079193 433.175415,405.151337 
	C428.870789,405.441772 424.125122,405.828674 419.372375,405.960297 
	C413.878693,406.112427 408.378754,406.039764 402.416077,405.980164 
z"/>
<path fill="#505050" opacity="1.000000" stroke="none" 
	d="
M490.219879,384.535706 
	C489.981323,384.532135 489.786774,384.360657 489.608459,384.055237 
	C489.922028,383.915344 490.135101,384.064178 490.219879,384.535706 
z"/>
<path fill="#505050" opacity="1.000000" stroke="none" 
	d="
M504.621460,398.748657 
	C504.276093,398.594269 503.825653,398.244019 503.274872,397.718140 
	C503.621826,397.879242 504.069092,398.216034 504.621460,398.748657 
z"/>
</svg>